<svg width="12" height="12" viewBox="0 0 12 12" fill="none" xmlns="http://www.w3.org/2000/svg">
<path d="M8.39664 6.8C8.49237 6.54418 8.54094 6.27314 8.53998 6C8.53998 5.39354 8.29906 4.81191 7.87023 4.38308C7.4414 3.95425 6.85977 3.71333 6.25331 3.71333C5.98354 3.71365 5.716 3.76219 5.46331 3.85666L5.99998 4.41C6.08156 4.39695 6.16403 4.39026 6.24664 4.39C6.67546 4.3891 7.0872 4.55791 7.39198 4.85956C7.69675 5.16121 7.86979 5.5712 7.87331 6C7.87304 6.08261 7.86635 6.16508 7.85331 6.24666L8.39664 6.8Z" fill="#C7D2D6"/>
<path d="M11.43 5.84333C10.3067 3.76667 8.33667 2.51 6.15667 2.51C5.56312 2.51139 4.97356 2.60703 4.41001 2.79333L4.94667 3.33333C5.34196 3.23118 5.74841 3.17855 6.15667 3.17667C8.03334 3.17667 9.74001 4.22333 10.7567 5.98667C10.3837 6.64087 9.88932 7.21786 9.30001 7.68667L9.77334 8.16C10.4554 7.60978 11.0218 6.93006 11.44 6.16L11.5267 6L11.43 5.84333Z" fill="#C7D2D6"/>
<path d="M1.62333 1.92666L3.11 3.41333C2.17031 4.01836 1.4023 4.85525 0.879999 5.84333L0.793332 5.99999L0.879999 6.15999C2.00333 8.23666 3.97333 9.49333 6.15333 9.49333C7.00422 9.49315 7.84405 9.30057 8.61 8.92999L10.2767 10.5967L10.86 10.0967L2.19333 1.42999L1.62333 1.92666ZM4.87333 5.17666L7.09 7.39333C6.83954 7.54835 6.55122 7.63139 6.25667 7.63333C6.04264 7.63333 5.83073 7.59101 5.63312 7.50881C5.43552 7.4266 5.25612 7.30613 5.10525 7.15433C4.95437 7.00253 4.83501 6.82239 4.75402 6.62429C4.67303 6.42618 4.63201 6.21401 4.63333 5.99999C4.63709 5.70885 4.72006 5.42422 4.87333 5.17666ZM4.39 4.69333C4.07814 5.13313 3.93197 5.66909 3.97737 6.20632C4.02277 6.74355 4.2568 7.24739 4.63803 7.62862C5.01927 8.00986 5.52311 8.24389 6.06034 8.28929C6.59757 8.33468 7.13353 8.18851 7.57333 7.87666L8.10666 8.40999C7.48926 8.6739 6.82478 8.80998 6.15333 8.80999C4.27666 8.80999 2.57 7.76333 1.55333 5.99999C2.04123 5.13607 2.74391 4.41273 3.59333 3.89999L4.39 4.69333Z" fill="#C7D2D6"/>
</svg>
