<svg width="250" height="36" viewBox="0 0 250 36" fill="none" xmlns="http://www.w3.org/2000/svg">
<rect x="0.355729" y="0.355729" width="71.2885" height="34.3635" rx="6.75885" fill="white"/>
<rect x="0.355729" y="0.355729" width="71.2885" height="34.3635" rx="6.75885" stroke="#BCBEC0" stroke-width="0.711458"/>
<g clip-path="url(#clip0_206_10)">
<path d="M44.3711 15.8653H43.6835V15.8299H35.9998V19.2448H40.8247C40.1208 21.2327 38.2294 22.6598 35.9998 22.6598C33.171 22.6598 30.8774 20.3662 30.8774 17.5374C30.8774 14.7085 33.171 12.4149 35.9998 12.4149C37.3056 12.4149 38.4936 12.9075 39.3981 13.7122L41.8129 11.2974C40.2882 9.87636 38.2486 9 35.9998 9C31.2851 9 27.4625 12.8226 27.4625 17.5374C27.4625 22.2521 31.2851 26.0747 35.9998 26.0747C40.7146 26.0747 44.5372 22.2521 44.5372 17.5374C44.5372 16.9649 44.4783 16.4062 44.3711 15.8653Z" fill="#FFC107"/>
<path d="M28.4463 13.5636L31.2512 15.6207C32.0102 13.7416 33.8483 12.4149 35.9993 12.4149C37.3051 12.4149 38.493 12.9075 39.3976 13.7122L41.8124 11.2974C40.2876 9.87636 38.248 9 35.9993 9C32.7201 9 29.8763 10.8513 28.4463 13.5636Z" fill="#FF3D00"/>
<path d="M36 26.075C38.2052 26.075 40.2089 25.2311 41.7238 23.8587L39.0815 21.6228C38.1956 22.2965 37.113 22.6609 36 22.66C33.7794 22.66 31.8939 21.2441 31.1836 19.2682L28.3996 21.4132C29.8125 24.178 32.6819 26.075 36 26.075Z" fill="#4CAF50"/>
<path d="M44.3711 15.8653H43.6835V15.8299H35.9998V19.2448H40.8247C40.488 20.191 39.8815 21.0177 39.0801 21.6229L39.0814 21.6221L41.7237 23.858C41.5367 24.0279 44.5372 21.806 44.5372 17.5374C44.5372 16.9649 44.4783 16.4062 44.3711 15.8653Z" fill="#1976D2"/>
</g>
<rect x="89.3557" y="0.355729" width="71.2885" height="34.3635" rx="6.75885" fill="white"/>
<rect x="89.3557" y="0.355729" width="71.2885" height="34.3635" rx="6.75885" stroke="#BCBEC0" stroke-width="0.711458"/>
<g clip-path="url(#clip1_206_10)">
<path fill-rule="evenodd" clip-rule="evenodd" d="M125 9C120.283 9 116.462 12.8205 116.462 17.5375C116.462 21.3153 118.906 24.5062 122.3 25.6375C122.727 25.7122 122.887 25.456 122.887 25.2319C122.887 25.0292 122.876 24.3568 122.876 23.6418C120.731 24.0367 120.176 23.1189 120.006 22.6387C119.91 22.3932 119.493 21.6355 119.13 21.4327C118.832 21.2727 118.405 20.8778 119.12 20.8671C119.792 20.8565 120.272 21.4861 120.432 21.7422C121.201 23.0335 122.428 22.6707 122.919 22.4466C122.994 21.8916 123.218 21.5181 123.463 21.3047C121.564 21.0912 119.579 20.3549 119.579 17.0893C119.579 16.1608 119.91 15.3925 120.454 14.7948C120.368 14.5814 120.07 13.7063 120.539 12.5324C120.539 12.5324 121.254 12.3083 122.887 13.4075C123.57 13.2154 124.296 13.1193 125.021 13.1193C125.747 13.1193 126.473 13.2154 127.156 13.4075C128.789 12.2976 129.504 12.5324 129.504 12.5324C129.973 13.7063 129.674 14.5814 129.589 14.7948C130.133 15.3925 130.464 16.1502 130.464 17.0893C130.464 20.3655 128.468 21.0912 126.569 21.3047C126.878 21.5715 127.145 22.0837 127.145 22.8841C127.145 24.026 127.134 24.9438 127.134 25.2319C127.134 25.456 127.294 25.7228 127.721 25.6375C129.416 25.0652 130.889 23.976 131.932 22.5229C132.976 21.0699 133.537 19.3263 133.537 17.5375C133.537 12.8205 129.717 9 125 9Z" fill="black"/>
</g>
<rect x="178.356" y="0.355729" width="71.2885" height="34.3635" rx="6.75885" fill="white"/>
<rect x="178.356" y="0.355729" width="71.2885" height="34.3635" rx="6.75885" stroke="#BCBEC0" stroke-width="0.711458"/>
<g clip-path="url(#clip2_206_10)">
<path d="M222.537 17.5898C222.537 12.8451 218.715 8.99893 214 8.99893C209.283 9 205.46 12.8451 205.46 17.5909C205.46 21.8778 208.583 25.4315 212.664 26.0761V20.0731H210.497V17.5909H212.666V15.6966C212.666 13.5441 213.941 12.3552 215.891 12.3552C216.826 12.3552 217.802 12.5228 217.802 12.5228V14.6358H216.726C215.666 14.6358 215.335 15.2985 215.335 15.9783V17.5898H217.702L217.324 20.0721H215.334V26.075C219.415 25.4304 222.537 21.8767 222.537 17.5898Z" fill="#059BE5"/>
</g>
<defs>
<clipPath id="clip0_206_10">
<rect x="27.4625" y="9" width="17.075" height="17.075" rx="8.5375" fill="white"/>
</clipPath>
<clipPath id="clip1_206_10">
<rect x="116.462" y="9" width="17.075" height="17.075" rx="8.5375" fill="white"/>
</clipPath>
<clipPath id="clip2_206_10">
<rect x="205.462" y="9" width="17.075" height="17.075" rx="8.5375" fill="white"/>
</clipPath>
</defs>
</svg>
